<svg width="429.00000000000006" height="66.20768319839421" viewBox="0 0 370.3076923076923 57.14968386535229" class="css-1j8o68f"><defs id="SvgjsDefs3688"></defs><g id="SvgjsG3689" featurekey="4K7G0D-0" transform="matrix(17.214241429630984,0,0,17.214241429630984,-14.18329959174314,-14.449179603162214)" fill="#0278ae"><g xmlns="http://www.w3.org/2000/svg"><path d="M3.814,2.209c-0.077,0.05-0.167,0.096-0.266,0.136C3.45,2.384,3.341,2.417,3.228,2.444S2.994,2.489,2.872,2.5   C2.811,2.506,2.749,2.51,2.687,2.512C2.655,2.513,2.625,2.513,2.594,2.514l-0.096,0C2.376,2.509,2.25,2.499,2.13,2.481   C2.01,2.464,1.892,2.44,1.782,2.408c-0.111-0.032-0.215-0.07-0.309-0.113S1.294,2.204,1.224,2.153   c-0.07-0.052-0.126-0.105-0.167-0.156C1.017,1.946,0.993,1.898,0.979,1.859c-0.003-0.01-0.006-0.02-0.009-0.028   C0.968,1.823,0.967,1.815,0.965,1.809c0.057-0.131,0.132-0.256,0.224-0.371c0,0,0,0,0,0C1.203,1.497,1.236,1.58,1.302,1.655   C1.366,1.73,1.457,1.798,1.566,1.853c0.108,0.056,0.235,0.098,0.375,0.125c0.07,0.015,0.143,0.025,0.218,0.032   c0.076,0.006,0.154,0.009,0.233,0.008c0.04,0,0.08-0.002,0.122-0.004c0.02-0.001,0.039-0.002,0.06-0.004s0.042-0.004,0.063-0.006   C2.72,1.994,2.804,1.979,2.889,1.961C2.973,1.943,3.058,1.92,3.142,1.89C3.183,1.875,3.225,1.858,3.266,1.84   c0.041-0.019,0.082-0.039,0.122-0.062c0.079-0.045,0.156-0.099,0.219-0.17c0.031-0.036,0.059-0.075,0.08-0.12   s0.032-0.094,0.032-0.144c0-0.005,0-0.01,0-0.014C3.887,1.51,4.009,1.717,4.085,1.937c-0.02,0.036-0.046,0.075-0.081,0.113   C3.956,2.104,3.892,2.159,3.814,2.209z"></path><path d="M3.937,2.97C3.85,3.019,3.75,3.064,3.641,3.102C3.531,3.14,3.413,3.171,3.289,3.196S3.035,3.239,2.903,3.25   C2.836,3.255,2.77,3.259,2.702,3.261c-0.034,0.001-0.066,0.001-0.1,0.001L2.499,3.261C2.366,3.258,2.23,3.248,2.099,3.231   C1.968,3.214,1.84,3.19,1.719,3.16c-0.122-0.03-0.236-0.066-0.341-0.109c-0.104-0.042-0.199-0.09-0.279-0.14   c-0.041-0.025-0.077-0.052-0.11-0.078C0.957,2.806,0.928,2.78,0.904,2.753c-0.03-0.032-0.053-0.063-0.07-0.092   C0.815,2.492,0.823,2.319,0.857,2.15c0.002,0.003,0.005,0.006,0.008,0.009C0.925,2.228,1,2.292,1.088,2.35s0.188,0.108,0.296,0.152   C1.492,2.545,1.608,2.581,1.73,2.609c0.122,0.028,0.249,0.048,0.378,0.06s0.26,0.017,0.393,0.014L2.597,2.68   C2.63,2.677,2.664,2.676,2.696,2.673C2.761,2.667,2.826,2.661,2.89,2.651C3.018,2.632,3.142,2.607,3.26,2.574   C3.379,2.54,3.491,2.5,3.594,2.453c0.103-0.048,0.197-0.101,0.278-0.159c0.081-0.059,0.148-0.123,0.2-0.187   c0.017-0.021,0.032-0.042,0.045-0.062c0.069,0.255,0.077,0.522,0.023,0.78C4.116,2.848,4.087,2.871,4.057,2.894   C4.02,2.919,3.98,2.946,3.937,2.97z"></path><path d="M3.652,1.345c0,0.08-0.04,0.157-0.098,0.217c-0.028,0.03-0.061,0.057-0.095,0.082C3.424,1.667,3.387,1.688,3.35,1.708   c-0.153,0.075-0.32,0.112-0.481,0.13c-0.081,0.01-0.161,0.013-0.24,0.012c-0.019,0-0.038,0-0.057-0.001   c-0.019,0-0.04-0.001-0.059-0.002C2.476,1.845,2.437,1.842,2.4,1.838C2.327,1.831,2.256,1.819,2.188,1.806   C2.121,1.792,2.056,1.776,1.996,1.758C1.875,1.721,1.77,1.676,1.687,1.628C1.604,1.58,1.542,1.528,1.507,1.483   C1.471,1.438,1.458,1.403,1.454,1.38c-0.001-0.005,0-0.007-0.001-0.01L1.451,1.369c0,0,0-0.003,0-0.005c0-0.003,0-0.006,0-0.009   c0-0.004,0-0.008,0-0.011c0-0.001,0-0.003,0-0.008c0-0.006,0.001-0.014,0.003-0.025c0.005-0.023,0.017-0.058,0.053-0.103   c0.036-0.045,0.097-0.097,0.18-0.145c0.044-0.026,0.096-0.051,0.152-0.074C1.835,1.001,1.833,1.013,1.831,1.023   C1.827,1.057,1.827,1.076,1.827,1.076l0,0.011c0,0,0.001,0.011,0.002,0.031c0.002,0.015,0.008,0.044,0.017,0.069   c0.009,0.021,0.02,0.047,0.036,0.07c0.031,0.048,0.078,0.094,0.134,0.13S2.14,1.45,2.213,1.466s0.151,0.022,0.233,0.018   c0.01,0,0.021-0.001,0.03-0.002L2.491,1.48l0.008,0c-0.002,0,0.004,0,0.003,0h0.001l0.002-0.001h0.003   c0.02-0.003,0.037-0.005,0.058-0.009c0.044-0.008,0.085-0.019,0.126-0.032c0.083-0.026,0.166-0.063,0.239-0.12   c0.01-0.006,0.018-0.015,0.026-0.022l0.013-0.012l0.012-0.013c0.017-0.016,0.032-0.036,0.045-0.056   c0.026-0.041,0.044-0.09,0.044-0.141L3.07,1.041c-0.002-0.013-0.006-0.026-0.009-0.04C3.057,0.989,3.052,0.978,3.047,0.966   C3.042,0.956,3.035,0.945,3.029,0.935c-0.014-0.02-0.028-0.04-0.045-0.056L2.982,0.877c0.235,0.071,0.458,0.194,0.65,0.37   C3.645,1.279,3.652,1.312,3.652,1.345z"></path><path d="M2.141,3.976c0.119,0.008,0.238,0.011,0.36,0.008L2.589,3.98c0.03-0.002,0.061-0.003,0.09-0.006   c0.06-0.004,0.119-0.01,0.177-0.018c0.117-0.015,0.232-0.035,0.341-0.061C3.307,3.872,3.412,3.84,3.509,3.804   C3.524,3.798,3.54,3.792,3.555,3.786C2.987,4.247,2.188,4.281,1.586,3.888c0.067,0.018,0.137,0.033,0.208,0.046   C1.907,3.954,2.023,3.968,2.141,3.976z"></path><path d="M2.1,1.096C2.1,1.096,2.1,1.097,2.1,1.096l0-0.001c0-0.009-0.001-0.016-0.001-0.021c0-0.001,0-0.003,0-0.008   C2.099,1.063,2.1,1.06,2.101,1.055c0.003-0.005,0.003-0.011,0.008-0.02C2.118,1.02,2.135,0.998,2.164,0.974   c0.028-0.023,0.069-0.049,0.118-0.071c0.013-0.005,0.026-0.01,0.039-0.016c0.013-0.005,0.027-0.01,0.042-0.015   c0.014-0.004,0.03-0.009,0.045-0.013c0.015-0.003,0.028-0.007,0.045-0.011c0.004,0,0.009-0.001,0.013-0.002   c0.075-0.005,0.152-0.008,0.231-0.006c0.027,0.004,0.053,0.01,0.08,0.017c0.01,0.003,0.018,0.006,0.027,0.009   c0.009,0.003,0.018,0.006,0.027,0.01l0.026,0.012l0.025,0.014c0.065,0.038,0.12,0.101,0.119,0.172c0,0.035-0.013,0.069-0.035,0.098   c-0.022,0.03-0.052,0.054-0.084,0.074L2.858,1.262L2.832,1.273c-0.009,0.004-0.018,0.007-0.027,0.01S2.788,1.291,2.778,1.292   c-0.037,0.01-0.074,0.018-0.111,0.02C2.63,1.317,2.593,1.316,2.56,1.314C2.543,1.313,2.522,1.311,2.504,1.31   C2.488,1.307,2.472,1.304,2.456,1.302C2.39,1.29,2.331,1.27,2.282,1.248s-0.09-0.047-0.118-0.071   C2.135,1.153,2.118,1.131,2.109,1.115C2.104,1.108,2.104,1.102,2.1,1.096L2.1,1.096L2.1,1.096C2.102,1.096,2.101,1.095,2.1,1.096   L2.1,1.096L2.1,1.096z"></path><path d="M3.473,3.698C3.379,3.727,3.278,3.751,3.172,3.77s-0.217,0.032-0.33,0.04c-0.056,0.004-0.113,0.006-0.17,0.007   c-0.029,0.001-0.057,0-0.085,0.001L2.499,3.816c-0.113-0.003-0.229-0.012-0.34-0.026c-0.111-0.014-0.22-0.034-0.324-0.058   c-0.103-0.024-0.201-0.054-0.29-0.087c-0.09-0.034-0.171-0.071-0.24-0.112C1.236,3.494,1.178,3.451,1.136,3.41   C1.094,3.368,1.067,3.329,1.053,3.298c-0.015-0.03-0.019-0.058-0.02-0.064c0,0,0-0.01-0.001-0.014c0-0.005,0-0.009,0-0.013   c0-0.007-0.001-0.01-0.001-0.01c0-0.021-0.006-0.041-0.015-0.059C1.103,3.184,1.198,3.226,1.299,3.26   c0.117,0.041,0.243,0.075,0.374,0.102S1.94,3.407,2.08,3.418C2.218,3.43,2.358,3.434,2.501,3.431l0.104-0.004   C2.64,3.425,2.676,3.423,2.71,3.42C2.78,3.416,2.85,3.409,2.918,3.399c0.137-0.018,0.271-0.042,0.4-0.074   c0.128-0.032,0.25-0.071,0.363-0.116c0.113-0.044,0.216-0.097,0.307-0.154c0.041-0.025,0.079-0.052,0.114-0.079   c-0.066,0.214-0.176,0.417-0.33,0.596C3.759,3.581,3.744,3.589,3.729,3.597C3.653,3.635,3.566,3.669,3.473,3.698z"></path></g></g><g id="SvgjsG3690" featurekey="wPuqcM-0" transform="matrix(1.3689945079988535,0,0,1.3689945079988535,76.35720554594145,0.11459393173843058)" fill="#0278ae"><path d="M16.2 6 l0 14 l-3 0 l0 -7.44 l-3.26 7.44 l-2.52 0 l-3.22 -7.4 l0 7.4 l-3 0 l0 -14 l2.88 0 l4.62 10.1 l4.62 -10.1 l2.88 0 z M23.560000000000002 9.42 c2.36 0 5.44 1.78 5.44 5.42 s-3.08 5.36 -5.44 5.36 s-5.46 -1.72 -5.46 -5.36 s3.1 -5.42 5.46 -5.42 z M23.560000000000002 11.96 c-1.3 0 -2.68 0.98 -2.68 2.88 c0 1.84 1.38 2.82 2.68 2.82 c1.28 0 2.68 -0.98 2.68 -2.82 c0 -1.9 -1.4 -2.88 -2.68 -2.88 z M38.42 5.859999999999999 l2.86 0 l0 5.3 l0 8.84 l-2.86 0 l0 -1.28 c-0.06 0.42 -1.08 1.48 -2.88 1.48 c-2.38 0 -5.14 -1.72 -5.14 -5.42 c0 -3.58 2.76 -5.36 5.14 -5.36 c1.8 0 2.82 1.12 2.88 1.34 l0 -4.9 z M35.940000000000005 17.66 c1.4 0 2.62 -0.96 2.62 -2.88 c0 -1.86 -1.22 -2.82 -2.62 -2.82 c-1.44 0 -2.76 0.98 -2.76 2.82 c0 1.9 1.32 2.88 2.76 2.88 z M48.480000000000004 9.42 c2.36 0 5.62 1.78 5 6.38 l-7.56 0 c0.36 1.3 1.44 1.98 2.84 1.98 c1.3 0 1.8 -0.3 2.54 -0.7 l1.58 1.54 c-0.9 0.94 -2.18 1.58 -4.22 1.58 c-2.6 0 -5.64 -1.78 -5.64 -5.36 c0 -3.64 3.1 -5.42 5.46 -5.42 z M48.480000000000004 11.86 c-1.04 0 -2.14 0.64 -2.52 1.92 l5 0 c-0.32 -1.28 -1.46 -1.92 -2.48 -1.92 z M61.760000000000005 9.44 c0.26 0 0.5 0 0.76 0.06 l0 2.74 c-0.24 -0.06 -0.48 -0.06 -0.68 -0.06 c-1.92 0 -3.5 1.38 -3.68 3.38 l0 4.44 l-2.86 0 l0 -10.4 l2.86 0 l0 2.6 c0.46 -1.58 1.72 -2.76 3.6 -2.76 z M70.34 9.44 c1.98 0 3.94 1.3 3.94 4.58 l0 5.98 l-2.86 0 l0 -5.78 c0 -1.7 -0.66 -2.28 -1.76 -2.28 c-1.52 0 -2.42 1.44 -2.64 2.16 l0 5.9 l-2.86 0 l0 -10.4 l2.86 0 l0 1.92 c0.2 -0.54 1.32 -2.08 3.32 -2.08 z M87.38000000000001 6 c3.98 0 7.1 3.12 7.1 6.92 c0 3.96 -3.12 7.08 -7.1 7.08 l-5 0 l0 -14 l5 0 z M87.36000000000001 17.240000000000002 c2.68 0 4.12 -1.94 4.12 -4.32 c0 -2.22 -1.44 -4.16 -4.12 -4.16 l-2.06 0 l0 8.48 l2.06 0 z M101.44 9.42 c2.36 0 5.62 1.78 5 6.38 l-7.56 0 c0.36 1.3 1.44 1.98 2.84 1.98 c1.3 0 1.8 -0.3 2.54 -0.7 l1.58 1.54 c-0.9 0.94 -2.18 1.58 -4.22 1.58 c-2.6 0 -5.64 -1.78 -5.64 -5.36 c0 -3.64 3.1 -5.42 5.46 -5.42 z M101.44 11.86 c-1.04 0 -2.14 0.64 -2.52 1.92 l5 0 c-0.32 -1.28 -1.46 -1.92 -2.48 -1.92 z M119.53999999999999 9.56 l-4.66 10.44 l-2.5 0 l-4.66 -10.44 l2.86 0 l3.04 7 l3.06 -7 l2.86 0 z M126.19999999999999 9.42 c2.36 0 5.44 1.78 5.44 5.42 s-3.08 5.36 -5.44 5.36 s-5.46 -1.72 -5.46 -5.36 s3.1 -5.42 5.46 -5.42 z M126.19999999999999 11.96 c-1.3 0 -2.68 0.98 -2.68 2.88 c0 1.84 1.38 2.82 2.68 2.82 c1.28 0 2.68 -0.98 2.68 -2.82 c0 -1.9 -1.4 -2.88 -2.68 -2.88 z M138.6 9.42 c2.38 0 5.14 1.78 5.14 5.36 c0 3.7 -2.76 5.42 -5.14 5.42 c-1.8 0 -2.82 -1.06 -2.88 -1.48 l0 5.08 l-2.86 0 l0 -6.12 l0 -8.08 l2.86 0 l0 1.16 c0.06 -0.22 1.08 -1.34 2.88 -1.34 z M138.2 17.66 c1.44 0 2.76 -0.98 2.76 -2.88 c0 -1.84 -1.32 -2.82 -2.76 -2.82 c-1.4 0 -2.62 0.96 -2.62 2.82 c0 1.92 1.22 2.88 2.62 2.88 z M150.46 12.719999999999999 c-0.32 -0.74 -0.78 -1.02 -1.34 -1.02 c-0.52 0 -1 0.32 -1 0.78 c0 0.44 0.28 0.72 0.84 0.92 l1.26 0.46 c1.52 0.54 3 1.1 3 3.12 c0 2.08 -2.06 3.26 -4.16 3.26 c-1.9 0 -3.7 -1.12 -4.12 -2.94 l2.26 -0.7 c0.26 0.7 0.82 1.36 1.86 1.36 c0.74 0 1.3 -0.48 1.3 -1 c0 -0.34 -0.24 -0.64 -0.86 -0.88 l-1.2 -0.42 c-2.04 -0.74 -2.98 -1.8 -2.98 -3.22 c0 -1.88 1.74 -3.02 3.68 -3.02 c1.96 0 3.26 1.06 3.86 2.68 z M165.6 5.76 c2.46 0 4.02 1.54 4.76 2.9 l-2.16 1.28 c-0.76 -1.06 -1.5 -1.6 -2.6 -1.6 c-0.98 0 -1.7 0.58 -1.7 1.38 s0.46 1.22 1.56 1.62 l0.96 0.34 c3.1 1.1 4.32 2.48 4.32 4.4 c0 2.82 -2.68 4.22 -5.06 4.22 c-2.52 0 -4.48 -1.5 -5.16 -3.46 l2.24 -1.18 c0.5 1.02 1.34 2 2.92 2 c1.14 0 2.02 -0.5 2.02 -1.54 c0 -1 -0.6 -1.44 -2.12 -2.02 l-0.86 -0.3 c-2.06 -0.74 -3.72 -1.76 -3.72 -4.2 c0 -2.24 2.1 -3.84 4.6 -3.84 z M177.22 17.6 c0.54 0 0.94 -0.06 1.38 -0.22 l0 2.4 c-0.44 0.2 -1.12 0.34 -2.12 0.34 c-1.62 0 -2.98 -0.56 -2.98 -3.5 l0 -4.66 l-1.46 0 l0 -2.36 l1.46 0 l0 -2.44 l2.86 0 l0 2.44 l2.22 0 l0 2.36 l-2.22 0 l0 4.64 c0 0.48 0.14 1 0.86 1 z M188 9.6 l2.86 0 l0 10.4 l-2.86 0 l0 -1.28 c-0.06 0.42 -1.08 1.48 -2.88 1.48 c-2.38 0 -5.14 -1.72 -5.14 -5.42 c0 -3.58 2.76 -5.36 5.14 -5.36 c1.8 0 2.82 1.12 2.88 1.34 l0 -1.16 z M185.52 17.66 c1.4 0 2.62 -0.96 2.62 -2.88 c0 -1.86 -1.22 -2.82 -2.62 -2.82 c-1.44 0 -2.76 0.98 -2.76 2.82 c0 1.9 1.32 2.88 2.76 2.88 z M198.02 9.42 c1.9 0 3.5 0.82 4.48 2.5 l-2.2 1.02 c-0.56 -0.56 -1.1 -0.98 -2.24 -0.98 c-1.3 0 -2.68 0.98 -2.68 2.86 c0 1.86 1.38 2.82 2.68 2.82 c1.14 0 1.68 -0.4 2.24 -0.96 l2.22 1.02 c-1 1.68 -2.56 2.46 -4.5 2.46 c-2.32 0 -5.42 -1.68 -5.42 -5.34 c0 -3.62 3.1 -5.4 5.42 -5.4 z M211.42000000000002 20 l-3.58 -4.16 l-0.82 0.86 l0 3.3 l-2.86 0 l0 -3.7 l0 -10.44 l2.86 0 l0 7.34 l3.34 -3.6 l3.42 0 l-4.18 4.38 l5.12 6.02 l-3.3 0 z"></path></g><g id="SvgjsG3691" featurekey="Li3fkV-0" transform="matrix(0.42417750866008935,0,0,0.42417750866008935,77.56733884812546,40.67559199289965)" fill="#0278ae"><path d="M8.34 5.48 q3.2 -0.02 5.1 1.96 l-0.96 1 q-0.6 -0.74 -1.77 -1.25 t-2.37 -0.51 q-2.66 0 -4.32 1.76 t-1.68 4.48 q0 2.7 1.64 4.44 t4.38 1.8 q2.6 0 3.94 -0.84 l0 -4.76 l-3.4 0 l0 -1.2 l4.72 0 l0 6.72 q-2.3 1.28 -5.28 1.28 q-3.2 0 -5.23 -2.09 t-2.09 -5.35 q0.02 -3.28 2.06 -5.34 t5.26 -2.1 z M40.384 5.84 l0 1.2 l-7.34 0 l0 5.04 l6.88 0 l0 1.2 l-6.88 0 l0 5.52 l7.66 0 l0 1.2 l-8.98 0 l0 -14.16 l8.66 0 z M62.028000000000006 12.08 q1.54 0 2.38 -0.69 t0.84 -1.83 t-0.82 -1.82 t-2.44 -0.7 l-2.86 0 l0 5.04 l2.9 0 z M61.62800000000001 5.84 q4.9 0 4.94 3.72 q0 3.14 -3.62 3.64 l4.12 6.8 l-1.5 0 l-3.98 -6.72 l-2.46 0 l0 6.72 l-1.32 0 l0 -14.16 l3.82 0 z M87.93200000000002 5.48 q2.46 0 3.86 1.78 l-1.14 0.82 q-1.04 -1.4 -2.76 -1.4 q-1.4 0 -2.27 0.72 t-0.91 1.96 q0 1.08 0.66 1.75 t2.3 1.13 q2.16 0.64 2.88 1.13 t1.09 1.21 t0.37 1.8 q0 1.72 -1.23 2.83 t-3.17 1.15 q-3.06 0 -4.6 -2.14 l1.26 -0.84 q1.06 1.76 3.24 1.78 q1.42 0 2.3 -0.79 t0.88 -1.99 q0 -0.7 -0.25 -1.15 t-0.76 -0.78 t-1.3 -0.6 t-1.85 -0.63 q-1.6 -0.52 -2.37 -1.46 t-0.77 -2.4 q0 -1.72 1.29 -2.8 t3.25 -1.08 z M109.63600000000002 12.92 q0 2.7 1.66 4.45 t4.34 1.79 q2.7 0 4.34 -1.77 t1.66 -4.47 q0 -2.74 -1.64 -4.47 t-4.38 -1.77 q-2.68 0 -4.32 1.76 t-1.66 4.48 z M115.63600000000002 5.48 q2.16 0 3.82 0.95 t2.57 2.66 t0.93 3.83 q0 3.26 -2.06 5.33 t-5.26 2.11 q-3.22 0 -5.24 -2.09 t-2.08 -5.35 q0.02 -3.26 2.04 -5.32 t5.28 -2.12 z M141.84 5.84 l8.62 12.4 l0.04 0 l0 -12.4 l1.32 0 l0 14.16 l-1.7 0 l-8.62 -12.4 l-0.04 0 l0 12.4 l-1.32 0 l0 -14.16 l1.7 0 z M174.144 12.08 q1.54 0 2.38 -0.69 t0.84 -1.83 t-0.82 -1.82 t-2.44 -0.7 l-2.86 0 l0 5.04 l2.9 0 z M173.744 5.84 q4.9 0 4.94 3.72 q0 3.14 -3.62 3.64 l4.12 6.8 l-1.5 0 l-3.98 -6.72 l-2.46 0 l0 6.72 l-1.32 0 l0 -14.16 l3.82 0 z M200.048 5.48 q2.46 0 3.86 1.78 l-1.14 0.82 q-1.04 -1.4 -2.76 -1.4 q-1.4 0 -2.27 0.72 t-0.91 1.96 q0 1.08 0.66 1.75 t2.3 1.13 q2.16 0.64 2.88 1.13 t1.09 1.21 t0.37 1.8 q0 1.72 -1.23 2.83 t-3.17 1.15 q-3.06 0 -4.6 -2.14 l1.26 -0.84 q1.06 1.76 3.24 1.78 q1.42 0 2.3 -0.79 t0.88 -1.99 q0 -0.7 -0.25 -1.15 t-0.76 -0.78 t-1.3 -0.6 t-1.85 -0.63 q-1.6 -0.52 -2.37 -1.46 t-0.77 -2.4 q0 -1.72 1.29 -2.8 t3.25 -1.08 z"></path></g></svg>