<svg width="466.69999999999993" height="104.60517241379308" viewBox="0 0 370.3076923076923 83" class="looka-1j8o68f"><defs id="SvgjsDefs3103"></defs><g id="SvgjsG3104" featurekey="rootContainer" transform="matrix(1,0,0,1,0,0)" fill="#6356e5"><rect y="0" height="1" width="1" opacity="0"></rect><rect y="78" width="370" height="5"></rect></g><g id="SvgjsG3105" featurekey="symbolFeature-0" transform="matrix(0.6487048033567042,0,0,0.6487048033567042,-3.9585883366460917,10.764003777354011)" fill="#6356e5"><path xmlns="http://www.w3.org/2000/svg" d="M32.517,23.508l-9.49,0.992c1.838-0.073,3.573,1.561,3.987,3.853c0.415,2.292-0.64,4.431-2.387,5.004l9.238-2.393  c1.66-0.3,2.703-2.213,2.331-4.271C35.824,24.634,34.177,23.207,32.517,23.508z"></path><path xmlns="http://www.w3.org/2000/svg" d="M41.146,22.664l-7.824,0.817c1.515-0.06,2.945,1.286,3.287,3.177c0.342,1.889-0.528,3.653-1.968,4.125l3.218-1.75  l2.728,0.208l1.67-0.431c1.368-0.248,2.229-1.824,1.922-3.522C43.872,23.591,42.515,22.417,41.146,22.664z"></path><path xmlns="http://www.w3.org/2000/svg" d="M48.104,21.972l-6.343,0.664c1.229-0.049,2.388,1.042,2.665,2.575c0.277,1.532-0.427,2.961-1.595,3.344l6.173-1.599  c1.111-0.201,1.808-1.479,1.559-2.855C50.315,22.725,49.215,21.771,48.104,21.972z"></path><path xmlns="http://www.w3.org/2000/svg" d="M17.661,44.638c-7.246,1.584-11.607,9.778-9.744,18.297c1.864,8.521,9.248,14.14,16.493,12.554  c7.246-1.585,11.608-9.774,9.744-18.295C32.291,48.675,24.906,43.052,17.661,44.638z M22.176,47.449  c0.512-0.113,1.018,0.213,1.13,0.725c0.112,0.513-0.212,1.017-0.724,1.13c-0.512,0.111-1.018-0.213-1.13-0.725  C21.339,48.066,21.664,47.559,22.176,47.449z M18.251,47.335c0.512-0.113,1.018,0.213,1.13,0.725  c0.112,0.513-0.212,1.017-0.724,1.13c-0.512,0.111-1.019-0.213-1.13-0.725C17.415,47.953,17.739,47.449,18.251,47.335z M14.26,49.18  c0.512-0.11,1.018,0.213,1.13,0.726c0.112,0.512-0.211,1.016-0.724,1.13c-0.512,0.11-1.018-0.213-1.13-0.726  C13.424,49.797,13.748,49.293,14.26,49.18z M12.049,52.58c0.512-0.113,1.018,0.21,1.129,0.723c0.112,0.512-0.212,1.02-0.725,1.13  c-0.512,0.113-1.018-0.211-1.13-0.723C11.212,53.197,11.536,52.69,12.049,52.58z M10.557,56.714c0.513-0.113,1.018,0.21,1.131,0.723  c0.112,0.512-0.212,1.019-0.725,1.13c-0.512,0.113-1.018-0.211-1.129-0.723C9.72,57.331,10.044,56.824,10.557,56.714z M9.881,62.503  c-0.112-0.513,0.212-1.017,0.725-1.13c0.512-0.11,1.018,0.213,1.13,0.726c0.112,0.512-0.212,1.019-0.724,1.13  C10.499,63.342,9.993,63.015,9.881,62.503z M12.946,67.634c-0.512,0.113-1.018-0.213-1.13-0.726  c-0.112-0.512,0.212-1.016,0.725-1.129c0.513-0.111,1.018,0.213,1.13,0.725C13.782,67.017,13.459,67.521,12.946,67.634z   M15.664,71.172c-0.513,0.113-1.018-0.211-1.131-0.723c-0.112-0.513,0.212-1.02,0.725-1.13c0.513-0.113,1.018,0.21,1.13,0.723  C16.5,70.555,16.176,71.062,15.664,71.172z M19.404,72.692c-0.512,0.113-1.018-0.21-1.13-0.723c-0.112-0.513,0.212-1.02,0.724-1.13  c0.512-0.113,1.019,0.211,1.13,0.723C20.241,72.075,19.917,72.582,19.404,72.692z M23.857,72.957  c-0.512,0.113-1.019-0.211-1.13-0.723c-0.112-0.513,0.212-1.02,0.725-1.13c0.512-0.113,1.018,0.21,1.13,0.723  C24.693,72.339,24.369,72.846,23.857,72.957z M27.434,71.479c-0.513,0.113-1.019-0.214-1.13-0.726  c-0.112-0.513,0.212-1.017,0.725-1.13c0.512-0.11,1.018,0.213,1.13,0.726C28.27,70.861,27.946,71.368,27.434,71.479z M23.009,69.082  c-4.236,0.928-8.554-2.359-9.644-7.34c-1.09-4.982,1.46-9.771,5.697-10.699c4.237-0.925,8.554,2.362,9.645,7.343  C29.796,63.365,27.245,68.157,23.009,69.082z M30.291,67.974c-0.512,0.11-1.019-0.213-1.13-0.726  c-0.112-0.512,0.212-1.019,0.725-1.13c0.513-0.112,1.018,0.211,1.13,0.723C31.127,67.354,30.804,67.86,30.291,67.974z   M26.565,50.943c-0.512,0.11-1.019-0.213-1.13-0.726s0.212-1.017,0.725-1.13c0.512-0.11,1.018,0.213,1.13,0.726  S27.078,50.83,26.565,50.943z M28.823,53.688c-0.112-0.513,0.212-1.02,0.725-1.13c0.512-0.113,1.018,0.21,1.129,0.723  c0.112,0.512-0.211,1.019-0.724,1.132C29.441,54.524,28.936,54.2,28.823,53.688z M32.305,63.397c-0.512,0.113-1.018-0.21-1.13-0.722  c-0.112-0.513,0.212-1.02,0.725-1.133c0.513-0.11,1.018,0.213,1.13,0.726C33.141,62.78,32.817,63.287,32.305,63.397z M31.856,58.668  c-0.513,0.111-1.018-0.213-1.13-0.725c-0.113-0.513,0.211-1.017,0.724-1.13c0.512-0.113,1.018,0.213,1.13,0.726  C32.692,58.051,32.368,58.555,31.856,58.668z"></path><path xmlns="http://www.w3.org/2000/svg" d="M59.13,65.245l-31.863,9.513c6.019-2.225,9.416-9.802,7.675-17.739c-1.739-7.925-7.979-13.394-14.371-12.91l32.912-4.667  c0.18-0.041,0.359-0.069,0.553-0.083c5.563-0.87,11.169,3.81,12.674,10.712c0.124,0.553,0.221,1.119,0.276,1.672  C67.717,58.231,64.418,64.086,59.13,65.245z"></path><path xmlns="http://www.w3.org/2000/svg" d="M66.986,51.744l-7.553-2.058c-3.947-0.76-6.378-5.357-5.426-10.244c0-0.028,0.015-0.055,0.028-0.083  c5.563-0.87,11.169,3.81,12.674,10.712C66.834,50.625,66.931,51.191,66.986,51.744z"></path><path xmlns="http://www.w3.org/2000/svg" d="M39.294,44.28l18.333,4.988c-3.464-1.189-5.51-5.471-4.63-10.024c0.881-4.553,4.376-7.766,8.032-7.574l-18.872-2.204  c-3.298-0.637-6.612,2.163-7.401,6.253C33.964,39.811,35.996,43.644,39.294,44.28z"></path><path xmlns="http://www.w3.org/2000/svg" d="M94.722,43.943c-1.299-5.95-6.255-9.926-11.044-8.877l-1.836,0.262l-25.693,3.631c5.343-0.4,10.575,4.169,12.024,10.794  c0.181,0.817,0.289,1.618,0.332,2.402c0.386,5.703-2.333,10.783-6.751,12.412l26.632-7.938  C93.188,55.567,96.02,49.894,94.722,43.943z"></path><path xmlns="http://www.w3.org/2000/svg" d="M22.667,39.638l15.115,4.113c-2.856-0.979-4.542-4.51-3.817-8.265c0.706-3.649,3.449-6.255,6.371-6.25  c0.083,0,0.168,0.002,0.251,0.006l-15.559-1.818c-2.72-0.525-5.452,1.782-6.103,5.156C18.272,35.953,19.948,39.113,22.667,39.638z"></path><path xmlns="http://www.w3.org/2000/svg" d="M9.249,35.914l12.253,3.333c-2.315-0.793-3.682-3.654-3.094-6.699c0.589-3.043,2.925-5.19,5.368-5.062l-12.613-1.474  c-2.205-0.425-4.419,1.445-4.946,4.181C5.687,32.927,7.044,35.488,9.249,35.914z"></path><path xmlns="http://www.w3.org/2000/svg" d="M22.216,24.634L10.86,25.82c2.199-0.087,4.276,1.868,4.772,4.61c0.495,2.742-0.765,5.301-2.855,5.987l4.73-1.226l1.8-8.113  l4.078,0.416l-2.84,6.91l3.283-0.849c1.987-0.358,3.235-2.648,2.789-5.111C26.172,25.98,24.201,24.274,22.216,24.634z"></path><path xmlns="http://www.w3.org/2000/svg" d="M59.247,49.49l5.02,1.367L54.92,39.248l8.001-1.245l7.897,14.637l10.189,2.771c-4.109-1.407-6.536-6.49-5.495-11.896  c1.046-5.405,5.196-9.219,9.537-8.991l-22.402-2.617c-3.916-0.756-7.85,2.567-8.787,7.422C52.921,44.186,55.333,48.735,59.247,49.49  z"></path></g><g id="SvgjsG3106" featurekey="nameFeature-0" transform="matrix(0.5667537848642716,0,0,0.5667537848642716,76.07303761791015,11.391651495460884)" fill="#6356e5"><path d="M32.48 12 c0.36 0 0.6 0.24 0.6 0.6 l0 26.8 c0 0.36 -0.24 0.6 -0.6 0.6 l-5.26 0 c-0.36 0 -0.6 -0.24 -0.6 -0.6 l0 -13.28 l-5.28 13.38 c-0.12 0.32 -0.4 0.5 -0.72 0.5 l-4.72 0 c-0.32 0 -0.62 -0.18 -0.74 -0.5 l-5.3 -13.44 l0 13.34 c0 0.36 -0.24 0.6 -0.6 0.6 l-5.26 0 c-0.36 0 -0.6 -0.24 -0.6 -0.6 l0 -26.8 c0 -0.36 0.24 -0.6 0.6 -0.6 l5.9 0 c0.32 0 0.6 0.12 0.72 0.4 l7.64 20.12 l7.62 -20.12 c0.12 -0.28 0.4 -0.4 0.72 -0.4 l5.88 0 z M53.5 40.52 c-7.92 0 -14.42 -6.4 -14.42 -14.4 c0 -8.04 6.5 -14.44 14.42 -14.44 c7.94 0 14.46 6.4 14.46 14.44 c0 8 -6.52 14.4 -14.46 14.4 z M53.5 34.26 c4.46 0 7.96 -3.58 7.96 -8.14 c0 -4.6 -3.5 -8.18 -7.96 -8.18 c-4.42 0 -7.92 3.58 -7.92 8.18 c0 4.56 3.5 8.14 7.92 8.14 z M83.1 12 c9.56 0 14.7 6.24 14.7 14 s-5.14 14 -14.7 14 l-8.54 0 c-0.36 0 -0.6 -0.24 -0.6 -0.6 l0 -26.8 c0 -0.36 0.24 -0.6 0.6 -0.6 l8.54 0 z M83.1 34.32 c5.42 0 8.14 -3 8.14 -8.32 s-2.72 -8.32 -8.14 -8.32 l-2.68 0 l0 16.64 l2.68 0 z M121.24000000000001 34.32 c0.36 0 0.6 0.24 0.6 0.6 l0 4.48 c0 0.36 -0.24 0.6 -0.6 0.6 l-17.54 0 c-0.36 0 -0.6 -0.24 -0.6 -0.6 l0 -26.8 c0 -0.36 0.24 -0.6 0.6 -0.6 l17.5 0 c0.36 0 0.6 0.24 0.6 0.6 l0 4.48 c0 0.36 -0.24 0.6 -0.6 0.6 l-11.64 0 l0 5.38 l10.66 0 c0.36 0 0.6 0.24 0.6 0.6 l0 4.48 c0 0.36 -0.24 0.6 -0.6 0.6 l-10.66 0 l0 5.58 l11.68 0 z M144.72 30.060000000000002 l4.88 9.24 c0.22 0.42 -0.02 0.7 -0.48 0.7 l-5.16 0 c-0.34 0 -0.54 -0.14 -0.7 -0.46 l-4.38 -8.64 l-0.48 0 l-4 0 l0 8.5 c0 0.36 -0.24 0.6 -0.6 0.6 l-5.26 0 c-0.36 0 -0.6 -0.24 -0.6 -0.6 l0 -26.8 c0 -0.36 0.24 -0.6 0.6 -0.6 l9.86 0 c8.82 0 11.46 3.14 11.46 9.44 c0 4.44 -1.3 7.3 -5.14 8.62 z M134.4 17.68 l0 7.54 l4.46 0 c3.18 0 4.82 -0.68 4.82 -3.78 c0 -3.06 -1.64 -3.76 -4.82 -3.76 l-4.46 0 z M177.9 12 c0.36 0 0.6 0.24 0.6 0.6 l0 26.8 c0 0.36 -0.24 0.6 -0.6 0.6 l-5.92 0 c-0.32 0 -0.56 -0.12 -0.72 -0.4 l-9.54 -17.14 l0 16.94 c0 0.36 -0.24 0.6 -0.6 0.6 l-5.26 0 c-0.36 0 -0.6 -0.24 -0.6 -0.6 l0 -26.8 c0 -0.36 0.24 -0.6 0.6 -0.6 l5.9 0 c0.32 0 0.56 0.12 0.72 0.4 l9.54 17.12 l0 -16.92 c0 -0.36 0.24 -0.6 0.6 -0.6 l5.28 0 z M226.74 23.88 c0.36 0 0.6 0.24 0.6 0.6 l0 2.86 c0 7.16 -4.62 13.18 -12.58 13.18 c-8.02 0 -14.66 -6.44 -14.66 -14.46 c0 -8.04 6.5 -14.38 14.52 -14.38 c3.9 0 7.48 1.6 9.92 4.14 c0.28 0.3 0.22 0.56 -0.02 0.84 l-3.24 3.5 c-0.22 0.28 -0.56 0.28 -0.84 0.04 c-1.54 -1.32 -3.48 -2.18 -5.88 -2.18 c-4.36 0 -7.78 3.48 -7.78 8.04 s3.22 8.12 7.92 8.12 c4.1 0 6.14 -2.38 6.26 -4.94 l-6.08 0 c-0.36 0 -0.6 -0.24 -0.6 -0.6 l0 -4.16 c0 -0.36 0.24 -0.6 0.6 -0.6 l11.86 0 z M252.57999999999998 17.68 l-6.34 0 l0 16.64 l6.34 0 c0.36 0 0.6 0.24 0.6 0.6 l0 4.48 c0 0.36 -0.24 0.6 -0.6 0.6 l-19.14 0 c-0.36 0 -0.6 -0.24 -0.6 -0.6 l0 -4.48 c0 -0.36 0.24 -0.6 0.6 -0.6 l6.34 0 l0 -16.64 l-6.34 0 c-0.36 0 -0.6 -0.24 -0.6 -0.6 l0 -4.48 c0 -0.36 0.24 -0.6 0.6 -0.6 l19.14 0 c0.36 0 0.6 0.24 0.6 0.6 l0 4.48 c0 0.36 -0.24 0.6 -0.6 0.6 z M279.52 12 c0.36 0 0.6 0.24 0.6 0.6 l0 4.48 c0 0.36 -0.24 0.6 -0.6 0.6 l-7.24 0 l0 21.72 c0 0.36 -0.24 0.6 -0.6 0.6 l-5.26 0 c-0.36 0 -0.6 -0.24 -0.6 -0.6 l0 -21.72 l-7.24 0 c-0.36 0 -0.6 -0.24 -0.6 -0.6 l0 -4.48 c0 -0.36 0.24 -0.6 0.6 -0.6 l20.94 0 z M299.03999999999996 40.52 c-7.92 0 -14.42 -6.4 -14.42 -14.4 c0 -8.04 6.5 -14.44 14.42 -14.44 c7.94 0 14.46 6.4 14.46 14.44 c0 8 -6.52 14.4 -14.46 14.4 z M299.03999999999996 34.26 c4.46 0 7.96 -3.58 7.96 -8.14 c0 -4.6 -3.5 -8.18 -7.96 -8.18 c-4.42 0 -7.92 3.58 -7.92 8.18 c0 4.56 3.5 8.14 7.92 8.14 z M329.96 12 c8.82 0 11.46 3.14 11.46 9.44 c0 6.32 -2.64 9.46 -11.46 9.46 l-4 0 l0 8.5 c0 0.36 -0.24 0.6 -0.6 0.6 l-5.26 0 c-0.36 0 -0.6 -0.24 -0.6 -0.6 l0 -26.8 c0 -0.36 0.24 -0.6 0.6 -0.6 l9.86 0 z M330.41999999999996 25.22 c3.18 0 4.82 -0.68 4.82 -3.78 c0 -3.06 -1.64 -3.76 -4.82 -3.76 l-4.46 0 l0 7.54 l4.46 0 z M355.69999999999993 23.06 c5.26 0.98 10.8 2.82 10.8 8.96 c0 5.98 -3.6 8.58 -10.66 8.58 c-6.58 0 -9.82 -2.24 -10.32 -7.84 c-0.04 -0.4 0.2 -0.66 0.56 -0.66 l4.82 0 c0.36 0 0.5 0.22 0.6 0.54 c0.52 1.44 1.8 2.14 4.34 2.14 c2.68 0 4.34 -0.76 4.34 -2.54 c0 -1.86 -0.6 -2.86 -4.48 -3.62 c-4.96 -0.98 -9.76 -3.04 -9.76 -8.68 c0 -5.16 3.14 -8.28 9.76 -8.28 c5.9 0 9.42 2.18 9.96 7.58 c0.04 0.4 -0.2 0.72 -0.56 0.72 l-4.46 0 c-0.36 0 -0.5 -0.28 -0.6 -0.6 c-0.38 -1.16 -1.64 -1.94 -4.24 -1.94 c-2.38 0 -3.58 1.04 -3.58 2.52 c0 1.2 -0.08 2.44 3.48 3.12 z M396.67999999999995 23.06 c5.26 0.98 10.8 2.82 10.8 8.96 c0 5.98 -3.6 8.58 -10.66 8.58 c-6.58 0 -9.82 -2.24 -10.32 -7.84 c-0.04 -0.4 0.2 -0.66 0.56 -0.66 l4.82 0 c0.36 0 0.5 0.22 0.6 0.54 c0.52 1.44 1.8 2.14 4.34 2.14 c2.68 0 4.34 -0.76 4.34 -2.54 c0 -1.86 -0.6 -2.86 -4.48 -3.62 c-4.96 -0.98 -9.76 -3.04 -9.76 -8.68 c0 -5.16 3.14 -8.28 9.76 -8.28 c5.9 0 9.42 2.18 9.96 7.58 c0.04 0.4 -0.2 0.72 -0.56 0.72 l-4.46 0 c-0.36 0 -0.5 -0.28 -0.6 -0.6 c-0.38 -1.16 -1.64 -1.94 -4.24 -1.94 c-2.38 0 -3.58 1.04 -3.58 2.52 c0 1.2 -0.08 2.44 3.48 3.12 z M433.11999999999995 12 c0.36 0 0.6 0.24 0.6 0.6 l0 4.48 c0 0.36 -0.24 0.6 -0.6 0.6 l-7.24 0 l0 21.72 c0 0.36 -0.24 0.6 -0.6 0.6 l-5.26 0 c-0.36 0 -0.6 -0.24 -0.6 -0.6 l0 -21.72 l-7.24 0 c-0.36 0 -0.6 -0.24 -0.6 -0.6 l0 -4.48 c0 -0.36 0.24 -0.6 0.6 -0.6 l20.94 0 z M463.03999999999996 39.32 c0.14 0.4 -0.04 0.68 -0.48 0.68 l-5.48 0 c-0.32 0 -0.56 -0.12 -0.68 -0.48 l-1.28 -3.88 l-10.02 0 l-1.28 3.88 c-0.1 0.36 -0.36 0.48 -0.68 0.48 l-5.48 0 c-0.44 0 -0.62 -0.28 -0.48 -0.68 l9.8 -26.84 c0.12 -0.32 0.36 -0.48 0.68 -0.48 l4.8 0 c0.32 0 0.66 0.16 0.78 0.48 z M446.91999999999996 30.18 l6.4 0 l-3.2 -9.68 z M488.38 32.04 l3.24 3.5 c0.24 0.28 0.3 0.56 0.02 0.84 c-2.44 2.5 -6.02 4.14 -9.92 4.14 c-8.02 0 -14.52 -6.34 -14.52 -14.4 c0 -8.1 6.5 -14.44 14.52 -14.44 c3.9 0 7.48 1.6 9.92 4.14 c0.28 0.3 0.22 0.56 -0.02 0.84 l-3.24 3.5 c-0.22 0.28 -0.56 0.28 -0.84 0.04 c-1.54 -1.32 -3.48 -2.18 -5.88 -2.18 c-4.36 0 -7.78 3.48 -7.78 8.1 c0 4.58 3.42 8.06 7.78 8.06 c2.4 0 4.34 -0.86 5.88 -2.18 c0.28 -0.24 0.62 -0.24 0.84 0.04 z M519.02 39.28 c0.28 0.4 0.12 0.72 -0.36 0.72 l-6.14 0 c-0.32 0 -0.52 -0.08 -0.72 -0.36 l-7.08 -10.72 l-1.24 1.5 l0 8.98 c0 0.36 -0.24 0.6 -0.6 0.6 l-5.26 0 c-0.36 0 -0.6 -0.24 -0.6 -0.6 l0 -26.8 c0 -0.36 0.24 -0.6 0.6 -0.6 l5.26 0 c0.36 0 0.6 0.24 0.6 0.6 l0 9.18 l7.54 -9.46 c0.2 -0.24 0.44 -0.32 0.72 -0.32 l6.26 0 c0.52 0 0.62 0.36 0.32 0.72 l-9.44 11.24 z"></path></g><g id="SvgjsG3107" featurekey="sloganFeature-0" transform="matrix(0.8130825339865909,0,0,0.8130825339865909,77.3012370365411,49.370917717602644)" fill="#6356e5"><path d="M7.9297 20.19531 c-4.0723 0 -7.0703 -2.8125 -7.0703 -7.2168 c0 -4.4629 3.0664 -7.2852 7.2168 -7.2852 c2.7246 0 4.9805 1.2012 6.2109 3.3203 l-2.5684 1.3672 c-0.74219 -1.4453 -2.0703 -2.1387 -3.6426 -2.1387 c-2.4414 0 -4.2773 1.6797 -4.2773 4.668 c0 2.8809 1.7188 4.7363 4.3848 4.7363 c1.8066 0 3.4668 -0.89844 3.8672 -2.959 l-3.8574 0 l0 -2.3535 l6.6309 0 l0 7.666 l-2.3047 0 l0 -1.9531 c-0.9082 1.3379 -2.4316 2.1484 -4.5898 2.1484 z M25.564199218749998 8.467 l-5.2344 0 l0 3.2031 l4.6387 0 l0 2.5488 l-4.6387 0 l0 3.1934 l5.2344 0 l0 2.5879 l-8.1836 0 l0 -14.111 l8.1836 0 l0 2.5781 z M35.5517140625 20 l-3.6719 -6.2109 l-0.84961 0 l0 6.2109 l-2.9297 0 l0 -14.111 l5.1172 0 c3.1934 0 4.541 1.8848 4.541 4.2188 c0 1.8945 -1.0742 3.125 -2.9883 3.5352 l4.248 6.3574 l-3.4668 0 z M31.0303140625 8.32 l0 3.3691 l1.7285 0 c1.5625 0 2.1973 -0.66406 2.1973 -1.6797 c0 -1.0059 -0.63477 -1.6895 -2.1973 -1.6895 l-1.7285 0 z M45.37356328125 20.19531 c-3.0273 0 -5.3906 -1.4551 -5.8203 -4.1016 l3.0273 -0.69336 c0.19531 1.582 1.3574 2.4023 2.9102 2.4023 c1.1914 0 2.1387 -0.52734 2.1289 -1.7188 c-0.0097656 -1.3281 -1.5723 -1.748 -3.291 -2.2754 c-2.0703 -0.64453 -4.2871 -1.4063 -4.2871 -4.0039 c0 -2.627 2.1484 -4.1113 4.9805 -4.1113 c2.4805 0 4.9805 1.0059 5.5469 3.7109 l-2.832 0.70313 c-0.26367 -1.4063 -1.2109 -2.0215 -2.5391 -2.0215 c-1.1816 0 -2.1875 0.48828 -2.1875 1.6504 c0 1.084 1.3867 1.4453 2.9883 1.9238 c2.1289 0.64453 4.6484 1.4648 4.6484 4.2773 c0 2.998 -2.5098 4.2578 -5.2734 4.2578 z M59.121121875 20.19531 c-4.1504 0 -7.2168 -2.832 -7.2168 -7.2559 c0 -4.4336 3.0664 -7.2461 7.2168 -7.2461 c4.1406 0 7.207 2.8125 7.207 7.2461 c0 4.4238 -3.0664 7.2559 -7.207 7.2559 z M59.121121875 17.5098 c2.4316 0 4.2969 -1.709 4.2969 -4.5703 c0 -2.8516 -1.8652 -4.5508 -4.2969 -4.5508 s-4.2969 1.6992 -4.2969 4.5508 c0 2.8613 1.8652 4.5703 4.2969 4.5703 z M78.18130859375 5.888999999999999 l2.9199 0 l0 14.111 l-3.3887 0 l-6.25 -10.088 l0 10.088 l-2.9199 0 l0 -14.111 l3.3496 0 l6.2891 10.029 l0 -10.029 z M91.7235890625 20 l-3.6719 -6.2109 l-0.84961 0 l0 6.2109 l-2.9297 0 l0 -14.111 l5.1172 0 c3.1934 0 4.541 1.8848 4.541 4.2188 c0 1.8945 -1.0742 3.125 -2.9883 3.5352 l4.248 6.3574 l-3.4668 0 z M87.2021890625 8.32 l0 3.3691 l1.7285 0 c1.5625 0 2.1973 -0.66406 2.1973 -1.6797 c0 -1.0059 -0.63477 -1.6895 -2.1973 -1.6895 l-1.7285 0 z M101.54543828125 20.19531 c-3.0273 0 -5.3906 -1.4551 -5.8203 -4.1016 l3.0273 -0.69336 c0.19531 1.582 1.3574 2.4023 2.9102 2.4023 c1.1914 0 2.1387 -0.52734 2.1289 -1.7188 c-0.0097656 -1.3281 -1.5723 -1.748 -3.291 -2.2754 c-2.0703 -0.64453 -4.2871 -1.4063 -4.2871 -4.0039 c0 -2.627 2.1484 -4.1113 4.9805 -4.1113 c2.4805 0 4.9805 1.0059 5.5469 3.7109 l-2.832 0.70313 c-0.26367 -1.4063 -1.2109 -2.0215 -2.5391 -2.0215 c-1.1816 0 -2.1875 0.48828 -2.1875 1.6504 c0 1.084 1.3867 1.4453 2.9883 1.9238 c2.1289 0.64453 4.6484 1.4648 4.6484 4.2773 c0 2.998 -2.5098 4.2578 -5.2734 4.2578 z"></path></g></svg>